<svg xmlns="http://www.w3.org/2000/svg" width="48" height="48" viewBox="0 0 135.46666 135.46667" role="img" version="1.1" xmlns:xlink="http://www.w3.org/1999/xlink">
  <path fill="none" stroke="#ffffff" stroke-opacity="1" stroke-width="1.5" vector-effect="non-scaling-stroke" stroke-linecap="round" stroke-linejoin="round" transform="scale(0.26458333)" d="M 82.742188,31.041016
       C 104.98163,30.534414 125.454,58.884949 136.83008,71.021484
       149.40956,84.44186 163.97,94.117731 179.51367,110.81836
       c 15.54372,16.70062 37.63477,46.69531 37.63477,46.69531
       l -0.23633,0.45117
       c 12.1047,-2.41584 25.29711,-3.73465 39.69336,-3.72461
       13.86955,0.009 26.62036,1.22874 38.3457,3.46289
       l -0.0996,-0.18945
       c 0,0 22.09106,-29.99469 37.63477,-46.69531
       15.54371,-16.700625 30.1041,-26.3765 42.68359,-39.796876
       12.5529,-13.39204 36.17993,-46.524683 61.03711,-38.845703
       24.85715,7.678983 17.3144,81.226199 14.32617,102.667969
       -3.03964,21.81073 -1.3124,51.28358 -14.02343,76.98437
       -7.89479,15.96276 -19.45904,31.4636 -27.29102,41.15821
       6.31213,14.89573 10.59377,29.74898 13.48437,43.17578
       17.74157,-1.53312 26.9004,-6.80273 26.9004,-6.80273
       -1.98983,18.97874 -7.58062,27.02614 -21.44141,34.71289
       0,0 15.9873,2.86566 13.98047,14.57421
       -2.00683,11.70857 -16.80664,17.19141 -16.80664,17.19141
       0,0 13.0182,4.88322 5.49414,18.75781
       -9.2608,17.07727 -46.50788,30.40814 -75.27344,49.75391
       -27.29888,18.35935 -48.64958,56.66442 -99.55664,56.61523
       -50.90706,0.0491 -72.25778,-38.25588 -99.55664,-56.61523
       -28.76559,-19.34577 -66.012622,-32.67664 -75.273438,-49.75391
       -7.524054,-13.87459 5.494141,-18.75781 5.49414,-18.75781
       10e-7,0 -14.799789,-5.48284 -16.80664,-17.19141
       -2.006851,-11.70855 13.980469,-14.57421 13.980469,-14.57421
       -13.860831,-7.68675 -19.451571,-15.73415 -21.441407,-34.71289
       0,0 9.4166,5.39557 27.609375,6.8496
       2.981515,-13.24287 7.282975,-27.7694 13.486331,-42.33203
       C 95.665201,244.25874 83.619569,228.2651 75.490234,211.82812
       62.7792,186.12733 64.506463,156.65448 61.466797,134.84375
       58.478565,113.40198 50.935804,39.854764 75.792969,32.1"/>
</svg>
