<svg xmlns="http://www.w3.org/2000/svg" width="485" height="485">
  <path fill="#fff" d="M65 41a72 72 0 0 1 10.24 4.86l2.99 1.7 3.08 1.75 3.05 1.73c4.94 2.8 9.83 5.64 14.63 8.68a697 697 0 0 0 7 4.37l13.56 8.4q3.12 1.93 6.26 3.84l3 1.86 2.52 1.54L133 81v2l2.2.79c2.9 1.25 5.09 2.7 7.61 4.59l2.9 2.16 1.59 1.19 5.52 4.08A390 390 0 0 1 178 116l2.57 2.23c5 4.42 9.8 9.02 14.56 13.7l1.76 1.73q2.1 2.12 4.11 4.34v2l2.32-.4c26.51-4.37 53.15-3.16 79.68.4l.9-1.87a31 31 0 0 1 4.6-6.38l1.84-2.14C292 128 292 128 294 128l1-3c1.5-1.5 1.5-1.5 3.44-3.12a284 284 0 0 0 9.25-8.2 237 237 0 0 1 16.49-13.31l5.79-4.39A408 408 0 0 1 354 79l5.62-3.76c9.31-6.24 18.6-12.36 28.5-17.65a205 205 0 0 0 9.25-5.53C415.18 41 415.18 41 419 41l2.81 8.31.8 2.33a196 196 0 0 1 7.51 29.67l.52 2.82c6.21 35.8 2.65 73.25-7.64 107.87l-.75 2.72c-2.2 7.9-5.63 15.09-9.32 22.4l-1.09 2.16-2.16 4.24c-2.34 4.56-2.34 4.56-3.68 9.48 1.28 1.81 1.28 1.81 3.25 3.56 6.72 7.16 11.14 15.84 15.75 24.44l1.11 2.06c5.11 9.68 8.82 19.89 12.45 30.19l.7 1.95q.99 2.77 1.93 5.57l1.13 3.27c.72 3.15.74 4.92-.32 7.96a51 51 0 0 1-6.37 4.63l-2.01 1.28a542 542 0 0 1-23.3 13.78l-6.52 3.72a400 400 0 0 1-21.57 11.5 688 688 0 0 0-23.23 12q-2.46 1.34-4.96 2.64c-5.92 3.43-8.53 8-11.63 14.04L341 378h-2l-.76 2.2c-1.36 3.06-2.96 5.17-5.11 7.74l-2.43 2.88L328 394l-3.02 3.58c-4.59 5.43-9.16 10.81-14.3 15.74a89 89 0 0 0-4.8 5.28c-4.2 4.83-8.67 9.37-13.2 13.9l-2.45 2.5-2.34 2.34-2.12 2.13C284 441 284 441 282 441c6.02-19.98 22.43-37.82 35.84-53.3 12.54-14.57 18.34-30.18 18.26-49.48v-2.12l-.04-6.6-.01-4.52L336 314c4.07 3.1 6.62 6.1 9.06 10.56l1.04 1.85c2.91 5.32 5.1 10.8 6.9 16.59l1.74-.96c13.1-7.2 26.29-14.19 39.76-20.67l2.73-1.32 2.55-1.21 2.25-1.08C404 317 404 317 407 317c-3.43-9.73-11.74-16.98-19-24l-4-4a91 91 0 0 1 25.96 4.27c3.54 1.08 6.3 1.73 10.04 1.73-3.32-20.67-16.5-40.24-29.18-56.37-2.72-3.92-2.72-3.92-2.82-6.63 1.04-2.78 1.04-2.78 2.63-6.06C407.4 188.77 408.9 136.74 396 98c-9.21.55-18.62 3.42-26 9q-2.54 1.13-5.13 2.2c-19.54 8.38-37.45 22.7-52.84 37.11C310 148 310 148 308 148v2c-1.3 1.27-1.3 1.27-3.19 2.81A208 208 0 0 0 280 178l-2.32 2.73A309 309 0 0 0 242 233a134 134 0 0 1-5.56-9.37A227 227 0 0 0 223 203l-1.93-2.77c-7.53-10.66-16.29-20.37-25.07-30.01-1.8-2-3.52-4.04-5.25-6.1-5.1-5.84-10.96-10.96-16.75-16.12l-1.72-1.53C147.48 124.44 119.31 105.56 87 97q-1.02 5-2 10l-.77 3.88-.8 4.12-.75 3.88a140 140 0 0 0-1.88 23.77l-.02 2.7q-.02 2.8-.02 5.62-.02 4.2-.07 8.39c-.1 16.44 1.27 32.86 6.19 48.64l.77 2.61a149 149 0 0 0 6.57 17.7c1 3.43.82 5.27-.22 8.69a90 90 0 0 1-4.87 6.69C77.47 258.94 66.52 276.7 64 296l1.83-.53 8.3-2.4 2.88-.85c7.5-2.16 14.19-3.35 21.99-3.22a46 46 0 0 1-8.36 8.56c-5.7 5-9.73 11-13.64 17.44q12.48 6.6 25 13.13l3.03 1.57 5.79 3.01a858 858 0 0 1 16.97 9.08q2.09 1.14 4.21 2.21l.25-2.87c1.29-8.76 5.7-19.23 12.85-24.75L147 315l-.06 2.25c-.63 25.57.58 48.08 17.06 68.75l1.48 1.88a67 67 0 0 0 5.34 5.89c9.03 9.26 16.24 20.37 23.18 31.23l1.89 2.92c2.9 4.63 4.95 8.73 6.11 14.08-6.46-5.28-12.32-11.13-18.21-17.02l-5.24-5.21-3.33-3.32-1.59-1.57C170 411.23 170 411.23 170 409h-2a116 116 0 0 1-3.59-4.3c-1.4-1.76-1.4-1.76-3.2-3.42-3.02-3.12-5.59-6.51-8.21-9.97l-1.72-2.24q-4.42-5.79-8.55-11.8l-1.59-2.3a329 329 0 0 1-2.92-4.35c-4.8-7.04-10.65-10.57-18.28-14.18a448 448 0 0 1-20.19-10.57c-8.43-4.63-8.43-4.63-17-9C67.78 329.51 53.26 321.16 40 311c1.51-6.65 3.19-13 5.94-19.26a83 83 0 0 0 2.4-7.42c1.59-5.36 3.73-10.3 6.16-15.32l1.31-2.73a228 228 0 0 1 9.94-18.14l1.32-2.18a64 64 0 0 1 8.88-11.3c1.26-1.63 1.26-1.63.9-3.8A41 41 0 0 0 74 224l-1.31-2.61-3.01-5.9C66.32 208.5 63.62 201.27 61 194l-.71-1.94C47.67 157.15 46.89 113.16 54 77"/>
  <path fill="#fff" d="m168 250 1.97.52c13.84 4.4 23.44 14.54 30.04 27.02 9.77 19.66 15.07 43.45 15.18 65.4l.04 3.9C215 350 215 350 213 352c-2.51-6.09-3.81-11.89-4.87-18.37-2.13-11.9-5.73-22.52-15.93-29.94-3.92-2.21-7.57-2.97-12.01-3.57-11.7-1.74-21.18-8.7-28.19-18.12-5.23-8.37-10.91-19.04-11.69-29l-.2-2.31L140 249c9.24-2.13 18.9-1.48 28 1m175-1c-.79 15.02-6.91 29.98-17.98 40.37-6.9 5.56-14.21 10.72-23.27 10.88-7.08.56-11.64 3.5-16.5 8.57-6.84 8.43-8.77 17.72-10.12 28.23A58 58 0 0 1 271 352l-2-1c-1.03-29.02 3.85-64.53 24-87 13.5-13.93 31.03-18.51 50-15M240 379c1.86.27 1.86.27 4 1 1.2 1.67 1.2 1.67 2.25 3.75 5.01 8.49 15.1 11.41 23.75 15.25-1.29 7.4-4.5 11.98-10.12 16.74-5.77 3.87-11.48 3.63-18.2 3.63l-3.04.08c-7.03.03-12.88-.87-18.12-5.86-1.33-1.53-1.33-1.53-3.52-4.59l-1.87-2.56C214 404 214 404 214 401.44c1.69-4.12 4.96-5.98 8.94-7.75l3.06-1.13c7.32-2.94 10.8-6.3 14-13.56"/>
</svg>
